<svg width="844" height="844" viewBox="0 0 844 844" fill="none" xmlns="http://www.w3.org/2000/svg">
<g filter="url(#filter0_d_102_70)">
<path fill-rule="evenodd" clip-rule="evenodd" d="M834 256.627C834 246.845 834.004 237.062 833.944 227.279C833.895 219.038 833.8 210.799 833.576 202.562C833.092 184.609 832.033 166.502 828.84 148.749C825.602 130.741 820.314 113.98 811.981 97.6166C803.789 81.5337 793.088 66.8168 780.32 54.0578C767.555 41.2989 752.834 30.6049 736.746 22.4179C720.366 14.0829 703.587 8.79697 685.558 5.55998C667.803 2.37199 649.691 1.315 631.738 0.829997C623.495 0.606998 615.253 0.512998 607.008 0.461998C597.22 0.401999 587.432 0.406999 577.644 0.406999L463.997 0H378.997L267.361 0.406999C257.554 0.406999 247.747 0.401999 237.94 0.461998C229.678 0.512998 221.42 0.606998 213.161 0.829997C195.167 1.315 177.014 2.37299 159.217 5.56498C141.164 8.80097 124.36 14.0849 107.958 22.4139C91.8354 30.6019 77.0825 41.2969 64.2906 54.0578C51.5007 66.8158 40.7798 81.5297 32.5728 97.6096C24.2169 113.981 18.9189 130.752 15.673 148.77C12.477 166.516 11.418 184.617 10.931 202.562C10.709 210.8 10.613 219.039 10.563 227.279C10.503 237.063 10 249.216 10 258.999L10.003 369.089L10 454.998L10.508 567.427C10.508 577.223 10.504 587.019 10.563 596.815C10.613 605.067 10.709 613.317 10.932 621.566C11.418 639.542 12.479 657.675 15.678 675.452C18.9229 693.484 24.2199 710.269 32.5688 726.653C40.7768 742.759 51.4997 757.495 64.2906 770.272C77.0815 783.049 91.8304 793.757 107.95 801.956C124.362 810.302 141.174 815.595 159.238 818.836C177.027 822.029 195.174 823.088 213.161 823.573C221.42 823.796 229.679 823.891 237.941 823.941C247.748 824.001 257.554 823.997 267.361 823.997L380.006 824H465.217L577.644 823.996C587.432 823.996 597.22 824.001 607.008 823.941C615.253 823.891 623.495 823.796 631.738 823.573C649.698 823.087 667.816 822.027 685.579 818.832C703.597 815.591 720.368 810.3 736.739 801.959C752.831 793.761 767.554 783.051 780.32 770.272C793.086 757.497 803.786 742.763 811.978 726.66C820.316 710.268 825.604 693.475 828.844 675.431C832.034 657.661 833.092 639.535 833.577 621.566C833.8 613.316 833.895 605.066 833.944 596.815C834.005 587.019 834 577.223 834 567.427C834 567.427 833.994 456.983 833.994 454.998V368.999C833.994 367.533 834 256.627 834 256.627Z" fill="url(#paint0_linear_102_70)"/>
</g>
<mask id="mask0_102_70" style="mask-type:alpha" maskUnits="userSpaceOnUse" x="10" y="0" width="824" height="824">
<path fill-rule="evenodd" clip-rule="evenodd" d="M834 256.627C834 246.845 834.004 237.062 833.944 227.279C833.895 219.038 833.8 210.799 833.576 202.562C833.092 184.609 832.033 166.502 828.84 148.749C825.602 130.741 820.314 113.98 811.981 97.6166C803.789 81.5337 793.088 66.8168 780.32 54.0578C767.555 41.2989 752.834 30.6049 736.746 22.4179C720.366 14.0829 703.587 8.79697 685.558 5.55998C667.803 2.37199 649.691 1.315 631.738 0.829997C623.495 0.606998 615.253 0.512998 607.008 0.461998C597.22 0.401999 587.432 0.406999 577.644 0.406999L463.997 0H378.997L267.361 0.406999C257.554 0.406999 247.747 0.401999 237.94 0.461998C229.678 0.512998 221.42 0.606998 213.161 0.829997C195.167 1.315 177.014 2.37299 159.217 5.56498C141.164 8.80097 124.36 14.0849 107.958 22.4139C91.8354 30.6019 77.0825 41.2969 64.2906 54.0578C51.5007 66.8158 40.7798 81.5297 32.5728 97.6096C24.2169 113.981 18.9189 130.752 15.673 148.77C12.477 166.516 11.418 184.617 10.931 202.562C10.709 210.8 10.613 219.039 10.563 227.279C10.503 237.063 10 249.216 10 258.999L10.003 369.089L10 454.998L10.508 567.427C10.508 577.223 10.504 587.019 10.563 596.815C10.613 605.067 10.709 613.317 10.932 621.566C11.418 639.542 12.479 657.675 15.678 675.452C18.9229 693.484 24.2199 710.269 32.5688 726.653C40.7768 742.759 51.4997 757.495 64.2906 770.272C77.0815 783.049 91.8304 793.757 107.95 801.956C124.362 810.302 141.174 815.595 159.238 818.836C177.027 822.029 195.174 823.088 213.161 823.573C221.42 823.796 229.679 823.891 237.941 823.941C247.748 824.001 257.554 823.997 267.361 823.997L380.006 824H465.217L577.644 823.996C587.432 823.996 597.22 824.001 607.008 823.941C615.253 823.891 623.495 823.796 631.738 823.573C649.698 823.087 667.816 822.027 685.579 818.832C703.597 815.591 720.368 810.3 736.739 801.959C752.831 793.761 767.554 783.051 780.32 770.272C793.086 757.497 803.786 742.763 811.978 726.66C820.316 710.268 825.604 693.475 828.844 675.431C832.034 657.661 833.092 639.535 833.577 621.566C833.8 613.316 833.895 605.066 833.944 596.815C834.005 587.019 834 577.223 834 567.427C834 567.427 833.994 456.983 833.994 454.998V368.999C833.994 367.533 834 256.627 834 256.627Z" fill="white"/>
</mask>
<g mask="url(#mask0_102_70)">
<rect x="-48" y="-62" width="914" height="914" fill="url(#paint1_linear_102_70)"/>
<g filter="url(#filter1_b_102_70)">
<rect x="10" width="824" height="824" rx="126" fill="black" fill-opacity="0.01"/>
</g>
<g filter="url(#filter2_ii_102_70)">
<path fill-rule="evenodd" clip-rule="evenodd" d="M834 256.627C834 246.845 834.004 237.062 833.944 227.279C833.895 219.038 833.8 210.799 833.576 202.562C833.092 184.609 832.033 166.502 828.84 148.749C825.602 130.741 820.314 113.98 811.981 97.6166C803.789 81.5337 793.088 66.8168 780.32 54.0578C767.555 41.2989 752.834 30.6049 736.746 22.4179C720.366 14.0829 703.587 8.79697 685.558 5.55998C667.803 2.37199 649.691 1.315 631.738 0.829997C623.495 0.606998 615.253 0.512998 607.008 0.461998C597.22 0.401999 587.432 0.406999 577.644 0.406999L463.997 0H378.997L267.361 0.406999C257.554 0.406999 247.747 0.401999 237.94 0.461998C229.678 0.512998 221.42 0.606998 213.161 0.829997C195.167 1.315 177.014 2.37299 159.217 5.56498C141.164 8.80097 124.36 14.0849 107.958 22.4139C91.8354 30.6019 77.0825 41.2969 64.2906 54.0578C51.5007 66.8158 40.7798 81.5297 32.5728 97.6096C24.2169 113.981 18.9189 130.752 15.673 148.77C12.477 166.516 11.418 184.617 10.931 202.562C10.709 210.8 10.613 219.039 10.563 227.279C10.503 237.063 10 249.216 10 258.999L10.003 369.089L10 454.998L10.508 567.427C10.508 577.223 10.504 587.019 10.563 596.815C10.613 605.067 10.709 613.317 10.932 621.566C11.418 639.542 12.479 657.675 15.678 675.452C18.9229 693.484 24.2199 710.269 32.5688 726.653C40.7768 742.759 51.4997 757.495 64.2906 770.272C77.0815 783.049 91.8304 793.757 107.95 801.956C124.362 810.302 141.174 815.595 159.238 818.836C177.027 822.029 195.174 823.088 213.161 823.573C221.42 823.796 229.679 823.891 237.941 823.941C247.748 824.001 257.554 823.997 267.361 823.997L380.006 824H465.217L577.644 823.996C587.432 823.996 597.22 824.001 607.008 823.941C615.253 823.891 623.495 823.796 631.738 823.573C649.698 823.087 667.816 822.027 685.579 818.832C703.597 815.591 720.368 810.3 736.739 801.959C752.831 793.761 767.554 783.051 780.32 770.272C793.086 757.497 803.786 742.763 811.978 726.66C820.316 710.268 825.604 693.475 828.844 675.431C832.034 657.661 833.092 639.535 833.577 621.566C833.8 613.316 833.895 605.066 833.944 596.815C834.005 587.019 834 577.223 834 567.427C834 567.427 833.994 456.983 833.994 454.998V368.999C833.994 367.533 834 256.627 834 256.627Z" fill="url(#paint2_linear_102_70)" fill-opacity="0.01"/>
</g>
<g filter="url(#filter3_dddiii_102_70)">
<path d="M171.41 341.21C171.41 332.926 178.126 326.21 186.411 326.21H261.542C269.826 326.21 276.542 332.926 276.542 341.21V651.835C276.542 660.12 269.826 666.835 261.542 666.835H186.41C178.126 666.835 171.41 660.12 171.41 651.835V341.21ZM163 218.976C163 202.155 168.841 187.904 180.522 176.223C192.67 164.074 207.155 158 223.976 158C240.797 158 255.048 164.074 266.73 176.223C278.878 187.904 284.952 202.155 284.952 218.976C284.952 235.797 278.878 250.282 266.73 262.43C255.048 274.112 240.797 279.952 223.976 279.952C207.155 279.952 192.67 274.112 180.522 262.43C168.841 250.282 163 235.797 163 218.976Z" fill="#0A66C2"/>
<path d="M352.072 341.21C352.072 332.926 358.788 326.21 367.072 326.21H437.998C446.282 326.21 452.998 332.926 452.998 341.21V371.601C452.998 372.08 453.386 372.468 453.864 372.468C454.192 372.468 454.492 372.282 454.641 371.99C457.899 365.608 462.491 359.226 468.417 352.843C474.491 346.302 481.734 340.461 490.144 335.321C498.555 330.182 508.133 325.976 518.88 322.706C529.627 319.435 541.308 317.799 553.924 317.799C580.557 317.799 602.051 322.005 618.404 330.415C634.758 338.358 647.374 349.572 656.252 364.057C665.597 378.542 671.905 395.597 675.175 415.221C678.446 434.846 680.081 456.105 680.081 479.001V651.835C680.081 660.12 673.366 666.835 665.081 666.835H589.95C581.666 666.835 574.95 660.12 574.95 651.835V500.027C574.95 490.215 574.483 480.169 573.548 469.889C573.081 459.143 570.979 449.33 567.241 440.453C563.97 431.575 558.596 424.333 551.12 418.726C544.112 413.119 533.832 410.315 520.282 410.315C506.732 410.315 495.751 412.885 487.341 418.025C478.93 422.697 472.389 429.239 467.716 437.649C463.511 445.592 460.708 454.704 459.306 464.983C457.904 475.263 457.203 486.01 457.203 497.224V651.835C457.203 660.12 450.487 666.835 442.203 666.835H367.072C358.788 666.835 352.072 660.12 352.072 651.835V341.21Z" fill="#0A66C2"/>
</g>
</g>
<defs>
<filter id="filter0_d_102_70" x="0" y="0" width="844" height="844" filterUnits="userSpaceOnUse" color-interpolation-filters="sRGB">
<feFlood flood-opacity="0" result="BackgroundImageFix"/>
<feColorMatrix in="SourceAlpha" type="matrix" values="0 0 0 0 0 0 0 0 0 0 0 0 0 0 0 0 0 0 127 0" result="hardAlpha"/>
<feOffset dy="10"/>
<feGaussianBlur stdDeviation="5"/>
<feColorMatrix type="matrix" values="0 0 0 0 0 0 0 0 0 0 0 0 0 0 0 0 0 0 0.3 0"/>
<feBlend mode="normal" in2="BackgroundImageFix" result="effect1_dropShadow_102_70"/>
<feBlend mode="normal" in="SourceGraphic" in2="effect1_dropShadow_102_70" result="shape"/>
</filter>
<filter id="filter1_b_102_70" x="-0.873127" y="-10.8731" width="845.746" height="845.746" filterUnits="userSpaceOnUse" color-interpolation-filters="sRGB">
<feFlood flood-opacity="0" result="BackgroundImageFix"/>
<feGaussianBlur in="BackgroundImageFix" stdDeviation="5.43656"/>
<feComposite in2="SourceAlpha" operator="in" result="effect1_backgroundBlur_102_70"/>
<feBlend mode="normal" in="SourceGraphic" in2="effect1_backgroundBlur_102_70" result="shape"/>
</filter>
<filter id="filter2_ii_102_70" x="10" y="-20" width="824" height="858" filterUnits="userSpaceOnUse" color-interpolation-filters="sRGB">
<feFlood flood-opacity="0" result="BackgroundImageFix"/>
<feBlend mode="normal" in="SourceGraphic" in2="BackgroundImageFix" result="shape"/>
<feColorMatrix in="SourceAlpha" type="matrix" values="0 0 0 0 0 0 0 0 0 0 0 0 0 0 0 0 0 0 127 0" result="hardAlpha"/>
<feOffset dy="-20"/>
<feGaussianBlur stdDeviation="20"/>
<feComposite in2="hardAlpha" operator="arithmetic" k2="-1" k3="1"/>
<feColorMatrix type="matrix" values="0 0 0 0 0 0 0 0 0 0 0 0 0 0 0 0 0 0 0.2 0"/>
<feBlend mode="normal" in2="shape" result="effect1_innerShadow_102_70"/>
<feColorMatrix in="SourceAlpha" type="matrix" values="0 0 0 0 0 0 0 0 0 0 0 0 0 0 0 0 0 0 127 0" result="hardAlpha"/>
<feOffset dy="14"/>
<feGaussianBlur stdDeviation="32"/>
<feComposite in2="hardAlpha" operator="arithmetic" k2="-1" k3="1"/>
<feColorMatrix type="matrix" values="0 0 0 0 0.304167 0 0 0 0 0.71194 0 0 0 0 1 0 0 0 0.1 0"/>
<feBlend mode="normal" in2="effect1_innerShadow_102_70" result="effect2_innerShadow_102_70"/>
</filter>
<filter id="filter3_dddiii_102_70" x="61" y="62" width="733.082" height="724.835" filterUnits="userSpaceOnUse" color-interpolation-filters="sRGB">
<feFlood flood-opacity="0" result="BackgroundImageFix"/>
<feColorMatrix in="SourceAlpha" type="matrix" values="0 0 0 0 0 0 0 0 0 0 0 0 0 0 0 0 0 0 127 0" result="hardAlpha"/>
<feOffset dx="6" dy="22"/>
<feGaussianBlur stdDeviation="20"/>
<feColorMatrix type="matrix" values="0 0 0 0 0.541667 0 0 0 0 0.770833 0 0 0 0 1 0 0 0 0.1 0"/>
<feBlend mode="normal" in2="BackgroundImageFix" result="effect1_dropShadow_102_70"/>
<feColorMatrix in="SourceAlpha" type="matrix" values="0 0 0 0 0 0 0 0 0 0 0 0 0 0 0 0 0 0 127 0" result="hardAlpha"/>
<feOffset dx="6" dy="12"/>
<feGaussianBlur stdDeviation="54"/>
<feColorMatrix type="matrix" values="0 0 0 0 0.541667 0 0 0 0 0.770833 0 0 0 0 1 0 0 0 0.3 0"/>
<feBlend mode="normal" in2="effect1_dropShadow_102_70" result="effect2_dropShadow_102_70"/>
<feColorMatrix in="SourceAlpha" type="matrix" values="0 0 0 0 0 0 0 0 0 0 0 0 0 0 0 0 0 0 127 0" result="hardAlpha"/>
<feOffset dy="17"/>
<feGaussianBlur stdDeviation="25"/>
<feColorMatrix type="matrix" values="0 0 0 0 0 0 0 0 0 0.105598 0 0 0 0 0.2125 0 0 0 0.2 0"/>
<feBlend mode="normal" in2="effect2_dropShadow_102_70" result="effect3_dropShadow_102_70"/>
<feBlend mode="normal" in="SourceGraphic" in2="effect3_dropShadow_102_70" result="shape"/>
<feColorMatrix in="SourceAlpha" type="matrix" values="0 0 0 0 0 0 0 0 0 0 0 0 0 0 0 0 0 0 127 0" result="hardAlpha"/>
<feOffset dy="2"/>
<feGaussianBlur stdDeviation="12"/>
<feComposite in2="hardAlpha" operator="arithmetic" k2="-1" k3="1"/>
<feColorMatrix type="matrix" values="0 0 0 0 1 0 0 0 0 1 0 0 0 0 1 0 0 0 0.25 0"/>
<feBlend mode="normal" in2="shape" result="effect4_innerShadow_102_70"/>
<feColorMatrix in="SourceAlpha" type="matrix" values="0 0 0 0 0 0 0 0 0 0 0 0 0 0 0 0 0 0 127 0" result="hardAlpha"/>
<feOffset dx="-24" dy="-10"/>
<feGaussianBlur stdDeviation="15"/>
<feComposite in2="hardAlpha" operator="arithmetic" k2="-1" k3="1"/>
<feColorMatrix type="matrix" values="0 0 0 0 0 0 0 0 0 0 0 0 0 0 0 0 0 0 0.16 0"/>
<feBlend mode="normal" in2="effect4_innerShadow_102_70" result="effect5_innerShadow_102_70"/>
<feColorMatrix in="SourceAlpha" type="matrix" values="0 0 0 0 0 0 0 0 0 0 0 0 0 0 0 0 0 0 127 0" result="hardAlpha"/>
<feOffset dx="8" dy="4"/>
<feGaussianBlur stdDeviation="20"/>
<feComposite in2="hardAlpha" operator="arithmetic" k2="-1" k3="1"/>
<feColorMatrix type="matrix" values="0 0 0 0 1 0 0 0 0 1 0 0 0 0 1 0 0 0 0.35 0"/>
<feBlend mode="normal" in2="effect5_innerShadow_102_70" result="effect6_innerShadow_102_70"/>
</filter>
<linearGradient id="paint0_linear_102_70" x1="-271.14" y1="0" x2="-271.14" y2="1386.28" gradientUnits="userSpaceOnUse">
<stop stop-color="white"/>
<stop offset="0.489516" stop-color="#EFEFEF"/>
<stop offset="1" stop-color="#C0C0C0"/>
</linearGradient>
<linearGradient id="paint1_linear_102_70" x1="838.377" y1="894.826" x2="838.377" y2="36.0721" gradientUnits="userSpaceOnUse">
<stop stop-color="#F6F3F3"/>
<stop offset="1" stop-color="white"/>
</linearGradient>
<linearGradient id="paint2_linear_102_70" x1="-271.14" y1="0" x2="-271.14" y2="1386.28" gradientUnits="userSpaceOnUse">
<stop stop-color="white"/>
<stop offset="0.489516" stop-color="#EFEFEF"/>
<stop offset="1" stop-color="#C0C0C0"/>
</linearGradient>
</defs>
</svg>
